<?xml version="1.0" encoding="utf-8"?>
<!-- Generator: Adobe Illustrator 16.0.0, SVG Export Plug-In . SVG Version: 6.00 Build 0)  -->
<!DOCTYPE svg PUBLIC "-//W3C//DTD SVG 1.1//EN" "http://www.w3.org/Graphics/SVG/1.1/DTD/svg11.dtd">
<svg version="1.1" id="Layer_1" xmlns="http://www.w3.org/2000/svg" xmlns:xlink="http://www.w3.org/1999/xlink" x="0px" y="0px"
	 width="792px" height="600px" viewBox="0 0 792 600" enable-background="new 0 0 792 600" xml:space="preserve">
<g>
	<g>
		<path d="M267.21,164.139c2.036-5.166-4.116-4.374-7.374-3.76c-7.034,1.325-13.84,4.206-20.35,7.096
			c-12.449,5.528-42.852,21.737-24.084,36.759c14.717,11.78,38.087,24.591,29.344,47.047c-7.523,19.323-32.711,20.377-50.229,20.118
			c-16.293-0.241-32.481-2.661-48.511-5.407c-1.393-0.238-4.316,1.662-4.549,1.622c17.021,2.916,34.152,5.385,51.454,5.525
			c15.912,0.128,34.192-1.532,47.454-11.244c6.878-5.037,11.011-13.292,11.252-21.775c0.28-9.831-7.012-17.796-13.927-23.813
			c-3.375-2.937-6.996-5.588-10.589-8.249c-4.84-3.584-10.372-6.988-12.486-12.913c-3.846-10.776,13.047-20.172,20.444-24.121
			c5.475-2.923,11.264-5.38,17.107-7.459c2.438-0.868,12.801-4.563,10.342,1.677C262.377,165.576,266.778,165.234,267.21,164.139
			L267.21,164.139z"/>
	</g>
</g>
<g>
	<g>
		<path d="M273.351,221.092c-8.657-2.48-16.459,9.68-18.369,16.525c-1.145,4.106-0.42,8.691,3.472,11.041
			c5.756,3.476,13.806,0.529,19.456-1.592c2.725-1.023,0.044-5.016-2.157-4.189c-4.154,1.56-10.795,4.461-15.297,2.564
			c-2.545-1.072-1.289-5.148-0.646-7.033c1.424-4.18,7.707-14.868,13.461-13.22C276.42,226.092,275.82,221.8,273.351,221.092
			L273.351,221.092z"/>
	</g>
</g>
<g>
	<g>
		<path d="M291.271,219.973c-5.835,5-8.263,13.001-6.958,20.5c1.263,7.258,7.202,9.809,13.599,6.559
			c7.253-3.686,12.128-10.939,10.629-19.279c-1.57-8.733-9.776-7.101-15.335-3.257c-2.418,1.672-1.364,3.186,1.053,1.515
			c12.305-8.509,14.897,21.131,0.111,19.306c-4.416-0.545-5.822-6.028-6.134-9.647c-0.445-5.163,1.086-11.52,5.142-14.995
			C295.978,218.447,292.847,218.622,291.271,219.973L291.271,219.973z"/>
	</g>
</g>
<g>
	<g>
		<path d="M311.735,180.813c5.584,30.738-1.146,62.118,3.521,92.958c0.074,0.486,4.958-0.474,4.839-1.26
			c-4.667-30.84,2.062-62.22-3.521-92.958C316.479,179.026,311.601,180.071,311.735,180.813L311.735,180.813z"/>
	</g>
</g>
<g>
	<g>
		<path d="M336.379,169.378c3.335,21.171,0.568,42.672,1.678,63.971c1.146,22.006,5.294,43.737,5.993,65.782
			c0.083,2.632,5.081,2.745,4.998,0.132c-0.719-22.688-4.914-45.07-6.094-67.724c-1.097-21.057,1.572-42.135-1.728-63.086
			C340.837,165.981,335.945,166.623,336.379,169.378L336.379,169.378z"/>
	</g>
</g>
<g>
	<g>
		<path d="M360.256,194.382c1.187-0.328,2.338-0.377,3.521-0.704c2.043-0.565,0.59-3.434-0.547-4.128
			c-11.447-6.991-25.748-5.567-38.397-3.472c-14.841,2.458-29.195,7.445-44.103,9.483c-2.433,0.333-0.142,4.756,2.062,4.455
			c12.997-1.777,25.626-5.799,38.461-8.429c12.903-2.644,29.078-5.523,41.011,1.765c-0.183-1.376-0.365-2.752-0.547-4.128
			c-1.188,0.328-2.338,0.376-3.521,0.704C355.751,190.603,358.11,194.976,360.256,194.382L360.256,194.382z"/>
	</g>
</g>
<g>
	<g>
		<path d="M466.938,175.842c-11.281-11.009-27.825,1.909-34.568,11.834c-10.089,14.849,4.623,24.99,14.853,34.006
			c6.189,5.455,12.367,11.627,15.426,19.436c3.625,9.253-3.032,17.298-10.81,21.531c-14.647,7.971-35.147,4.259-50.11-0.825
			c-3.091-1.05-3.114,3.435-0.5,4.322c14.387,4.888,30.703,7.256,45.624,3.52c13.581-3.4,24.893-14.982,20.045-29.49
			c-5.089-15.23-21.055-22.381-30.599-34.067c-6.175-7.561-0.658-15.856,5.146-21.721c5.218-5.271,16.173-11.91,22.743-5.498
			C466.451,181.098,469.181,178.03,466.938,175.842L466.938,175.842z"/>
	</g>
</g>
<g>
	<g>
		<path d="M487.268,223.281c-9.737,3.481-12.734,17.183-11.403,26.237c1.22,8.298,9.378,16.887,18.159,12.572
			c13.34-6.554,16.594-44.813-3.938-38.809c-0.39,0.114,1.779,4.323,3.07,3.945c2.936-0.858,6.938-1.357,8.03,2.188
			c1.045,3.391,0.71,7.181,0.154,10.625c-1.079,6.694-4.229,14.575-10.388,18.104c-2.807,1.609-6.606,1.36-9.378-0.148
			c-3.465-1.885-2.959-9.002-2.661-12.241c0.657-7.13,4.159-15.931,11.425-18.529C490.804,227.06,488.485,222.845,487.268,223.281
			L487.268,223.281z"/>
	</g>
</g>
</svg>
